<svg xmlns="http://www.w3.org/2000/svg" width="14.001" height="14" viewBox="0 0 14.001 14">
  <defs>
    <style>
      .cls-1 {
        fill: none;
      }

      .cls-2 {
        fill: #b2b2b2;
      }
    </style>
  </defs>
  <g id="left_icon_visible" transform="translate(-202.999 -498)">
    <rect id="矩形_2553" data-name="矩形 2553" class="cls-1" width="14" height="14" transform="translate(203 498)"/>
    <path id="减去_9" data-name="减去 9" class="cls-2" d="M7.228,9.561A7.585,7.585,0,0,1,1.728,7.4,8.025,8.025,0,0,1,.014,4.938l0-.007A.214.214,0,0,1,0,4.905a4.333,4.333,0,0,1,.426-1A7.192,7.192,0,0,1,7,0a7.035,7.035,0,0,1,5.375,2.278,8.121,8.121,0,0,1,1.612,2.6c.009.023.013.03.013.032a6.7,6.7,0,0,1-1.566,2.582A6.936,6.936,0,0,1,7.228,9.561ZM6.942,1.644A3.207,3.207,0,1,0,10.149,4.85,3.212,3.212,0,0,0,6.942,1.644Z" transform="translate(202.999 499.793)"/>
    <circle id="椭圆_582" data-name="椭圆 582" class="cls-2" cx="1.75" cy="1.75" r="1.75" transform="translate(208.249 502.951)"/>
  </g>
</svg>
