<svg xmlns="http://www.w3.org/2000/svg" width="14" height="14" viewBox="0 0 14 14">
  <defs>
    <style>
      .cls-1 {
        fill: none;
      }

      .cls-2 {
        fill: #b2b2b2;
      }
    </style>
  </defs>
  <g id="left_icon_invisible" transform="translate(-208 -486)">
    <rect id="矩形_2554" data-name="矩形 2554" class="cls-1" width="14" height="14" transform="translate(208 486)"/>
    <path id="left_icon_invisible-2" data-name="left_icon_invisible" class="cls-2" d="M161.115,207.347a3.184,3.184,0,0,1,3.183,3.183,3.1,3.1,0,0,1-.229,1.167l1.859,1.858a7.524,7.524,0,0,0,2.184-3.025,7.529,7.529,0,0,0-7-4.775,7.417,7.417,0,0,0-2.535.446l1.375,1.375a3.09,3.09,0,0,1,1.167-.229Zm-6.367-1.739,1.451,1.452.293.294a7.516,7.516,0,0,0-2.38,3.176,7.529,7.529,0,0,0,9.792,4.24l.266.267,1.866,1.859.808-.808L155.558,204.8l-.809.808Zm3.52,3.52.987.986a1.865,1.865,0,0,0-.051.414,1.907,1.907,0,0,0,1.91,1.91,1.865,1.865,0,0,0,.414-.051l.986.986a3.164,3.164,0,0,1-4.247-4.245Zm2.745-.5,2.006,2.006.012-.1a1.907,1.907,0,0,0-1.91-1.909l-.107.007Z" transform="translate(53.888 282.2)"/>
  </g>
</svg>
