{
    "asset" : {
        "generator" : "Khronos glTF Blender I/O v1.6.16",
        "version" : "2.0"
    },
    "scene" : 0,
    "scenes" : [
        {
            "extras" : {
                "namedlayers" : {
                    "layers" : [
                        {
                            "name" : "Layer01"
                        },
                        {
                            "name" : "Layer02"
                        },
                        {
                            "name" : "Layer03"
                        },
                        {
                            "name" : "Layer04"
                        },
                        {
                            "name" : "Layer05"
                        },
                        {
                            "name" : "Layer06"
                        },
                        {
                            "name" : "Layer07"
                        },
                        {
                            "name" : "Layer08"
                        },
                        {
                            "name" : "Layer09"
                        },
                        {
                            "name" : "Layer10"
                        },
                        {
                            "name" : "Layer11"
                        },
                        {
                            "name" : "Layer12"
                        },
                        {
                            "name" : "Layer13"
                        },
                        {
                            "name" : "Layer14"
                        },
                        {
                            "name" : "Layer15"
                        },
                        {
                            "name" : "Layer16"
                        },
                        {
                            "name" : "Layer17"
                        },
                        {
                            "name" : "Layer18"
                        },
                        {
                            "name" : "Layer19"
                        },
                        {
                            "name" : "Layer20"
                        }
                    ],
                    "use_init" : 0
                },
                "ats_settings" : {
                    "num_tiles" : [
                        15,
                        9
                    ],
                    "threads_error" : 0,
                    "prev_engine" : "BLENDER_RENDER",
                    "prev_device" : "",
                    "prev_border" : 0,
                    "prev_threads" : 8,
                    "prev_choice" : "64",
                    "prev_res" : [
                        960,
                        540
                    ],
                    "prev_border_res" : [
                        0,
                        0,
                        1,
                        1
                    ],
                    "prev_actual_tile_size" : [
                        64,
                        60
                    ],
                    "first_run" : 0
                }
            },
            "name" : "Scene",
            "nodes" : [
                0
            ]
        }
    ],
    "nodes" : [
        {
            "mesh" : 0,
            "name" : "tree"
        }
    ],
    "materials" : [
        {
            "doubleSided" : true,
            "name" : "trunk",
            "pbrMetallicRoughness" : {
                "baseColorFactor" : [
                    0.3343227505683899,
                    0.1349007785320282,
                    0.02529202029109001,
                    1
                ],
                "metallicFactor" : 0,
                "roughnessFactor" : 0.5
            }
        }
    ],
    "meshes" : [
        {
            "name" : "tree",
            "primitives" : [
                {
                    "attributes" : {
                        "POSITION" : 0,
                        "NORMAL" : 1,
                        "TEXCOORD_0" : 2
                    },
                    "indices" : 3,
                    "material" : 0
                }
            ]
        }
    ],
    "accessors" : [
        {
            "bufferView" : 0,
            "componentType" : 5126,
            "count" : 32312,
            "max" : [
                2.493309259414673,
                6.4843950271606445,
                2.5182180404663086
            ],
            "min" : [
                -2.913335084915161,
                0,
                -2.9490878582000732
            ],
            "type" : "VEC3"
        },
        {
            "bufferView" : 1,
            "componentType" : 5126,
            "count" : 32312,
            "type" : "VEC3"
        },
        {
            "bufferView" : 2,
            "componentType" : 5126,
            "count" : 32312,
            "type" : "VEC2"
        },
        {
            "bufferView" : 3,
            "componentType" : 5123,
            "count" : 159408,
            "type" : "SCALAR"
        }
    ],
    "bufferViews" : [
        {
            "buffer" : 0,
            "byteLength" : 387744,
            "byteOffset" : 0
        },
        {
            "buffer" : 0,
            "byteLength" : 387744,
            "byteOffset" : 387744
        },
        {
            "buffer" : 0,
            "byteLength" : 258496,
            "byteOffset" : 775488
        },
        {
            "buffer" : 0,
            "byteLength" : 318816,
            "byteOffset" : 1033984
        }
    ],
    "buffers" : [
        {
            "byteLength" : 1352800,
            "uri" : "data:application/octet-stream;base64,"
        }
    ]
}
