{
	"asset": {
		"generator": "Unity 2019.2.17f1",
		"extras": {
			"exporterVersion" : "2.1.1"
		},
		"version": "2.0"
	},
	"accessors": [
		{
			"bufferView": 2,
			"byteOffset": 0,
			"componentType": 5126,
			"count": 168,
			"max": [ -33.75987, 3, 57.11217 ],
			"min": [ -48.17026, 0, 44.63651 ],
			"type": "VEC3"
		},
		{
			"bufferView": 2,
			"byteOffset": 2016,
			"componentType": 5126,
			"count": 168,
			"max": [ 0.8998277, 1, 0.8998277 ],
			"min": [ -0.8998277, 0, -0.8998277 ],
			"type": "VEC3"
		},
		{
			"bufferView": 1,
			"byteOffset": 0,
			"componentType": 5126,
			"count": 168,
			"max": [ 1, 1 ],
			"min": [ 0, 0 ],
			"type": "VEC2"
		},
		{
			"bufferView": 1,
			"byteOffset": 1344,
			"componentType": 5126,
			"count": 168,
			"max": [ 1, 1 ],
			"min": [ 0, 0 ],
			"type": "VEC2"
		},
		{
			"bufferView": 0,
			"byteOffset": 0,
			"componentType": 5123,
			"count": 48,
			"max": [ 137 ],
			"min": [ 0 ],
			"type": "SCALAR"
		},
		{
			"bufferView": 0,
			"byteOffset": 96,
			"componentType": 5123,
			"count": 120,
			"max": [ 167 ],
			"min": [ 12 ],
			"type": "SCALAR"
		},
		{
			"bufferView": 2,
			"byteOffset": 4032,
			"componentType": 5126,
			"count": 11184,
			"max": [ 221.96, 0.01000001, 317.74 ],
			"min": [ -68.72, -3.57628E-09, -26.56 ],
			"type": "VEC3"
		},
		{
			"bufferView": 2,
			"byteOffset": 138240,
			"componentType": 5126,
			"count": 11184,
			"max": [ 1, 1, 1 ],
			"min": [ -1, -1, -1 ],
			"type": "VEC3"
		},
		{
			"bufferView": 1,
			"byteOffset": 2688,
			"componentType": 5126,
			"count": 11184,
			"max": [ 1, 1 ],
			"min": [ 0, 0 ],
			"type": "VEC2"
		},
		{
			"bufferView": 1,
			"byteOffset": 92160,
			"componentType": 5126,
			"count": 11184,
			"max": [ 0, 0 ],
			"min": [ 0, 0 ],
			"type": "VEC2"
		},
		{
			"bufferView": 0,
			"byteOffset": 336,
			"componentType": 5123,
			"count": 16776,
			"max": [ 11183 ],
			"min": [ 0 ],
			"type": "SCALAR"
		},
		{
			"bufferView": 2,
			"byteOffset": 272448,
			"componentType": 5126,
			"count": 538,
			"max": [ -23.9402, 1.050029, 51.12323 ],
			"min": [ -24.74671, 2.8193E-05, 50.11679 ],
			"type": "VEC3"
		},
		{
			"bufferView": 2,
			"byteOffset": 278904,
			"componentType": 5126,
			"count": 538,
			"max": [ 0.9900761, 1, 0.9994381 ],
			"min": [ -0.9900761, -1, -0.9994381 ],
			"type": "VEC3"
		},
		{
			"bufferView": 1,
			"byteOffset": 181632,
			"componentType": 5126,
			"count": 538,
			"max": [ 8.5, 3.125 ],
			"min": [ -7.5, -2.125 ],
			"type": "VEC2"
		},
		{
			"bufferView": 1,
			"byteOffset": 185936,
			"componentType": 5126,
			"count": 538,
			"max": [ 0, 0 ],
			"min": [ 0, 0 ],
			"type": "VEC2"
		},
		{
			"bufferView": 0,
			"byteOffset": 33888,
			"componentType": 5123,
			"count": 1080,
			"max": [ 537 ],
			"min": [ 0 ],
			"type": "SCALAR"
		}
	],
	"buffers": [
		{
			"byteLength": 511648,
			"uri": "Unity2GLTF.bin"
		}
	],
	"bufferViews": [
		{
			"buffer": 0,
			"byteLength": 36048,
			"byteOffset": 475600,
			"target": 34963
		},
		{
			"buffer": 0,
			"byteLength": 190240,
			"byteOffset": 0,
			"byteStride": 8,
			"target": 34962
		},
		{
			"buffer": 0,
			"byteLength": 285360,
			"byteOffset": 190240,
			"byteStride": 12,
			"target": 34962
		}
	],
	"images": [
		{
			"uri": "Assets/RoomWall.png"
		},
		{
			"uri": "Assets/WallEdge.png"
		},
		{
			"uri": "Assets/AFBFE10DD189FAE02725EDECC92164FA.png"
		}
	],
	"materials": [
		{
			"pbrMetallicRoughness": {
				"baseColorTexture" : {
					"index" : 0,
					"texCoord" : 0
				},
				"baseColorFactor": [0.6, 0.6, 0.6, 1],
				"metallicFactor": 0,
				"roughnessFactor": 0.6
			},
			"emissiveFactor": [0, 0, 0],
			"doubleSided": false,
			"name": "Standard"
		},
		{
			"pbrMetallicRoughness": {
				"baseColorTexture" : {
					"index" : 1,
					"texCoord" : 0
				},
				"baseColorFactor": [0.6, 0.6, 0.6, 1],
				"metallicFactor": 0,
				"roughnessFactor": 0.6
			},
			"emissiveFactor": [0, 0, 0],
			"doubleSided": false,
			"name": "Standard"
		},
		{
			"pbrMetallicRoughness": {
				"baseColorFactor": [0.5882353, 0.5882353, 0.5882353, 0],
				"metallicFactor": 0,
				"roughnessFactor": 0.6
			},
			"alphaMode": "BLEND",
			"emissiveFactor": [0, 0, 0],
			"doubleSided": false,
			"name": "01 - Default (Instance)"
		},
		{
			"pbrMetallicRoughness": {
				"baseColorTexture" : {
					"index" : 2,
					"texCoord" : 0
				},
				"baseColorFactor": [0.9, 0.9, 0.9, 1],
				"metallicFactor": 0.1,
				"roughnessFactor": 0.6
			},
			"emissiveFactor": [0, 0, 0],
			"doubleSided": false,
			"name": "Material #25 (Instance)"
		}
	],
	"meshes": [
		{
			"name": "mesh__-87598CombineStraightWall",
			"primitives": [
				{
					"attributes": {
						"POSITION": 0,
						"NORMAL": 1,
						"TEXCOORD_0": 2,
						"TEXCOORD_1": 3
					},
					"indices": 4,
					"material": 0,
					"mode": 4
				},
				{
					"attributes": {
						"POSITION": 0,
						"NORMAL": 1,
						"TEXCOORD_0": 2,
						"TEXCOORD_1": 3
					},
					"indices": 5,
					"material": 1,
					"mode": 4
				}
			]
		},
		{
			"name": "mesh__-87610CombinePrefabWall",
			"primitives": [
				{
					"attributes": {
						"POSITION": 6,
						"NORMAL": 7,
						"TEXCOORD_0": 8,
						"TEXCOORD_1": 9
					},
					"indices": 10,
					"material": 2,
					"mode": 4
				}
			]
		},
		{
			"name": "mesh__-87622CombinePrefabWall",
			"primitives": [
				{
					"attributes": {
						"POSITION": 11,
						"NORMAL": 12,
						"TEXCOORD_0": 13,
						"TEXCOORD_1": 14
					},
					"indices": 15,
					"material": 3,
					"mode": 4
				}
			]
		}
	],
	"nodes": [
		{
			"name": "UnityGlTF_correctionMatrix",
			"children": [
				1
			],
			"matrix": [-1, 0, -8.742278E-08, 0, 0, 1, 0, 0, 8.742278E-08, 0, -1, 0, 0, 0, 0, 1]
		},
		{
			"name": "node_World_-9320",
			"children": [
				2,
				3
			],
			"matrix": [1, 0, 0, 0, 0, 1, 0, 0, 0, 0, 1, 0, 0, 0, 0, 1]
		},
		{
			"name": "node_Buildings_-9326"
		},
		{
			"name": "node_FloorPlan_-9460",
			"children": [
				4,
				5,
				6,
				7,
				8,
				9,
				10,
				11,
				12,
				13,
				14,
				15,
				19,
				20,
				21,
				22,
				23,
				24,
				25,
				26,
				27
			]
		},
		{
			"name": "node_Placements_-9466"
		},
		{
			"name": "node_Routes_-9482"
		},
		{
			"name": "node_Text3Ds_-9486"
		},
		{
			"name": "node_WayPoints_-9490"
		},
		{
			"name": "node_HeatmapObjs_-9494"
		},
		{
			"name": "node_PosPoints_-9498"
		},
		{
			"name": "node_PipeLines_-9502"
		},
		{
			"name": "node_LeakWaterLines_-9506"
		},
		{
			"name": "node_lines_-9510"
		},
		{
			"name": "node_curveLines_-9514"
		},
		{
			"name": "node_arrowLines_-9518"
		},
		{
			"name": "node_CombineWall_-9522",
			"children": [
				16,
				17,
				18
			]
		},
		{
			"name": "node_CombineStraightWall_-87592",
			"mesh": 0
		},
		{
			"name": "node_CombinePrefabWall_-87604",
			"mesh": 1
		},
		{
			"name": "node_CombinePrefabWall_-87616",
			"mesh": 2
		},
		{
			"name": "node_CombineFloor_-9526"
		},
		{
			"name": "node_CombineCeiling_-9530"
		},
		{
			"name": "node_CombineDoorOrWin_-9538"
		},
		{
			"name": "node_CombinePlacement_-9542"
		},
		{
			"name": "node_DoorOrWins_-9546"
		},
		{
			"name": "node_ArrowDataLines_-9550"
		},
		{
			"name": "node_Polygon_-9554"
		},
		{
			"name": "node_CubePolygon_-9558"
		},
		{
			"name": "node_ColliderCube_-9562",
			"scale": [ 0, 0, 0]
		}
	],
	"samplers": [
		{
			"magFilter": 9729,
			"minFilter": 9985,
			"wrapS": 10497,
			"wrapT": 10497
		}
	],
	"scenes": [
		{
			"name":"defaultScene",
			"nodes": [
				0
			]
		}
	],
	"scene": 0,
	"textures": [
		{
			"sampler": 0,
			"source": 0
		},
		{
			"sampler": 0,
			"source": 1
		},
		{
			"sampler": 0,
			"source": 2
		}
	]
}